# xmcd
#
# Track frame offsets:
#	150
#	22660
#	49260
#	63046
#	75886
#	89566
#	102596
#	123432
#	134538
#	143508
#	158830
#	168604
#	183124
#	206649
#	222866
#	236763
#	255253
#	267815
#
# Disc length: 3700 seconds
#
# Revision: 0
# Processed by: cddbd v1.5.1PL2 Copyright (c) Steve Scherf et al.
# Submitted via: SynApp - FreeCDDB Version: 2.0
#
DISCID=ed0e7212
DTITLE=Hedemann, Walter - In alter Liebe
DYEAR=1999
DGENRE=A capella
TTITLE0=Gebrauchsanweisung, inliegend
TTITLE1=Gebremster Abschied
TTITLE2=Guter Rat
TTITLE3=Ausgebeuteter Liebhaber
TTITLE4=Gartenstück
TTITLE5=Kindheit, verklärt
TTITLE6=Ultimative Klapphornverse
TTITLE7=Kleine Parabel
TTITLE8=Meinungsfreiheit
TTITLE9=An die vollkommene Cordula
TTITLE10=Das Lied vom schönen Hameln II
TTITLE11=Frommer Mitmensch
TTITLE12=Das untaugliche Subjekt
TTITLE13=Pfingstchoral
TTITLE14=Später Ausgleich
TTITLE15=Das Lied
TTITLE16=Klapphornverse
TTITLE17=Beim Frühstück
EXTD=
EXTT0=
EXTT1=
EXTT2=
EXTT3=
EXTT4=
EXTT5=
EXTT6=
EXTT7=
EXTT8=
EXTT9=
EXTT10=
EXTT11=
EXTT12=
EXTT13=
EXTT14=
EXTT15=
EXTT16=
EXTT17=
PLAYORDER=
